<?xml version="1.0" encoding="utf-8"?>
<!-- Generator: Adobe Illustrator 22.0.1, SVG Export Plug-In . SVG Version: 6.00 Build 0)  -->
<svg version="1.1" id="Capa_1" xmlns="http://www.w3.org/2000/svg" xmlns:xlink="http://www.w3.org/1999/xlink" x="0px" y="0px"
	 viewBox="0 0 700.2 700.2" style="enable-background:new 0 0 700.2 700.2;" xml:space="preserve">
<style type="text/css">
	.st0{fill:#FFFFFF;stroke:#000000;stroke-miterlimit:10;}
</style>
<g>
	<path class="st0" d="M645.5,495.8l-75.6-43.7l63.8-38c10.3-4.9,13.4-18.7,7.6-28.9c-5.9-10.4-18.8-12.6-28.5-6.9l-85.1,49.8
		l-135.3-78.7l135.3-77.9l85.1,49.8c2.7,1.9,6.1,3.1,9.9,3.1c7.2,0,13.7-3.4,18.6-9.9c5.7-10.3,2.7-23.9-7.6-28.9l-63.8-38
		l75.6-43.7c9.9-5.7,13.2-18.4,7.6-28.9c-5.4-10.1-18.7-13.5-28.9-7.6l-76,44.1l-1.1-76c-0.2-11.8-9.1-21.2-20.9-21.2
		c-11.8,0-21,10.2-20.9,21.2l0.8,100.3l-134.5,77.9V155.8l84.7-48.3c9.9-5.6,14.2-18.6,8.4-28.9c-5.9-10.4-18.1-13.5-28.5-7.6
		l-64.6,36.5V21.2c0-11.8-9.5-21.2-21.3-21.2s-20.9,9.5-20.9,21.2v87.1L262.5,71c-10.4-5.8-22.3-2.5-28.1,7.6
		c-5.9,10.4-2.2,23.1,8,28.9l87,49V313l-137.5-79.4l0.8-98.1c1.1-11-8.7-21.2-20.5-21.2h-0.8c-11,0-20.8,9.5-20.9,21.2l-0.8,73.8
		l-74.1-42.6c-10.3-6-23.1-2.4-28.5,7.5c-5.6,10.5-2.7,22.9,7.6,28.9l74.8,43.3l-65.4,39.2c-10.3,4.9-13.5,18.7-7.2,28.9
		c4,6.6,9.9,9.9,17.9,9.9c4.2,0,7.7-1.1,11-3.1l85.5-50.5l137.2,78.6l-137.2,79.4l-85.5-50.6c-10.3-6-23.5-3.2-28.9,6.9
		c-5.6,10.5-2.6,23,7.2,28.9l65.4,38.7l-74.8,43.7c-10.3,6-13.6,18.6-7.6,28.9c4.2,7.1,9.9,10.6,17.9,10.6c1.9,0,5.7-1.1,10.6-3.1
		l74.1-42.6l0.8,73.8c0.1,11.8,9.9,20.8,20.9,20.8h0.8c11.8,0,20.6-9.8,20.5-21.6l-0.8-98l137.5-78.6v155.7l-87,49
		c-10.4,5.8-14,18.6-8,28.9c4.2,7.2,9.9,10.7,17.9,10.7c3.8,0,7.3-0.6,10.3-2.4l66.9-37.9v88.5c0,11.8,9.1,20.9,20.9,20.9
		s21.3-9.2,21.3-20.9v-87.1l64.6,36.5c3,1.7,6.5,2.4,9.9,2.4c8.4,0,14.5-3.4,18.6-10.7c5.8-10.2,2-23-8.4-28.9L371.6,544V386
		l134.5,77.9l-0.8,99.5c-0.1,11.8,9.1,21.6,20.9,21.6s20.7-9.1,20.9-20.8l1.1-76.4l76,44.5c2.9,1.7,6.8,2.3,11,2.3
		c8,0,13.8-3.3,17.9-9.9C659.4,514.5,655.4,501.5,645.5,495.8z"/>
</g>
</svg>
